<svg xmlns="http://www.w3.org/2000/svg" xmlns:xlink="http://www.w3.org/1999/xlink" width="68" zoomAndPan="magnify" viewBox="0 0 50.879997 50.999998" height="68" preserveAspectRatio="xMidYMid meet" version="1.0"><defs><clipPath id="ac8b3e24ea"><path d="M 1 5 L 43 5 L 43 49 L 1 49 Z M 1 5 " clip-rule="nonzero"/></clipPath><clipPath id="126f407f98"><path d="M 0 47.515625 L 3.96875 -0.207031 L 44.980469 3.203125 L 41.011719 50.925781 Z M 0 47.515625 " clip-rule="nonzero"/></clipPath><clipPath id="926f8e3172"><path d="M 0 47.515625 L 3.96875 -0.207031 L 44.980469 3.203125 L 41.011719 50.925781 Z M 0 47.515625 " clip-rule="nonzero"/></clipPath><clipPath id="3ed10b2711"><path d="M 3 2 L 38 2 L 38 48 L 3 48 Z M 3 2 " clip-rule="nonzero"/></clipPath><clipPath id="86a9007d0c"><path d="M 0 47.515625 L 3.96875 -0.207031 L 44.980469 3.203125 L 41.011719 50.925781 Z M 0 47.515625 " clip-rule="nonzero"/></clipPath><clipPath id="0f78427610"><path d="M 0 47.515625 L 3.96875 -0.207031 L 44.980469 3.203125 L 41.011719 50.925781 Z M 0 47.515625 " clip-rule="nonzero"/></clipPath></defs><g clip-path="url(#ac8b3e24ea)"><g clip-path="url(#126f407f98)"><g clip-path="url(#926f8e3172)"><path fill="#fd3b32" d="M 40.324219 7.785156 C 38.519531 5.90625 35.808594 4.941406 33.222656 5.261719 C 30.636719 5.582031 28.242188 7.179688 26.953125 9.441406 C 25.289062 12.359375 25.375 16.238281 23.003906 18.613281 C 21.066406 20.554688 18.0625 20.882812 15.320312 20.832031 C 12.578125 20.78125 9.722656 20.480469 7.191406 21.535156 C 3.816406 22.9375 1.730469 26.652344 1.695312 30.308594 C 1.65625 33.964844 3.429688 37.476562 5.957031 40.117188 C 8.488281 42.757812 11.722656 44.613281 15.054688 46.121094 C 22.105469 49.316406 30.726562 48.804688 36.316406 43.449219 C 40.617188 39.320312 42.539062 33.195312 42.753906 27.234375 C 42.96875 21.277344 41.628906 13.601562 40.324219 7.785156 Z M 40.324219 7.785156 " fill-opacity="1" fill-rule="nonzero"/></g></g></g><g clip-path="url(#3ed10b2711)"><g clip-path="url(#86a9007d0c)"><g clip-path="url(#0f78427610)"><path fill="#253754" d="M 23.453125 47.578125 C 20.910156 47.425781 18.40625 46.800781 16.078125 45.765625 C 13.738281 44.730469 11.570312 43.289062 9.710938 41.53125 C 7.863281 39.78125 6.3125 37.714844 5.191406 35.425781 C 3.925781 32.828125 3.113281 29.769531 3.90625 26.90625 C 4.582031 24.460938 6.359375 22.386719 8.894531 21.8125 C 11.230469 21.28125 13.667969 21.871094 15.988281 22.210938 C 18.199219 22.535156 20.625 22.726562 22.609375 21.5 C 24.792969 20.144531 25.730469 17.5625 26.226562 15.164062 C 26.816406 12.300781 27.03125 9.269531 28.878906 6.871094 C 30.386719 4.914062 32.664062 3.5625 35.101562 3.175781 C 35.707031 3.078125 36.316406 3.046875 36.921875 3.074219 C 37.074219 3.078125 37.09375 2.84375 36.941406 2.835938 C 34.480469 2.730469 32.03125 3.625 30.148438 5.210938 C 29.210938 6 28.414062 6.960938 27.839844 8.046875 C 27.136719 9.375 26.785156 10.847656 26.511719 12.3125 C 26 15.03125 25.691406 18.039062 23.78125 20.203125 C 22.957031 21.136719 21.859375 21.765625 20.644531 22.035156 C 19.496094 22.292969 18.304688 22.25 17.144531 22.125 C 14.738281 21.863281 12.332031 21.191406 9.894531 21.417969 C 8.726562 21.527344 7.585938 21.878906 6.613281 22.542969 C 5.585938 23.242188 4.789062 24.246094 4.242188 25.355469 C 2.96875 27.945312 3.222656 30.9375 4.164062 33.59375 C 5.050781 36.101562 6.5 38.421875 8.277344 40.398438 C 10.054688 42.375 12.0625 43.933594 14.328125 45.167969 C 16.59375 46.398438 19.015625 47.234375 21.542969 47.617188 C 22.171875 47.710938 22.800781 47.777344 23.433594 47.816406 C 23.585938 47.824219 23.605469 47.589844 23.453125 47.582031 Z M 23.453125 47.578125 " fill-opacity="1" fill-rule="nonzero"/></g></g></g></svg>