<svg xmlns="http://www.w3.org/2000/svg" xmlns:xlink="http://www.w3.org/1999/xlink" width="68" zoomAndPan="magnify" viewBox="0 0 50.879997 50.999998" height="68" preserveAspectRatio="xMidYMid meet" version="1.0"><defs><filter x="0%" y="0%" width="100%" height="100%" id="5026cdd1ec"><feColorMatrix values="0 0 0 0 1 0 0 0 0 1 0 0 0 0 1 0 0 0 1 0" color-interpolation-filters="sRGB"/></filter><clipPath id="87ecc122c8"><path d="M 0 5 L 50.761719 5 L 50.761719 49 L 0 49 Z M 0 5 " clip-rule="nonzero"/></clipPath><mask id="059fe8d405"><g filter="url(#5026cdd1ec)"><rect x="-5.088" width="61.055996" fill="#000000" y="-5.1" height="61.199998" fill-opacity="0.66"/></g></mask><clipPath id="14a8c50d47"><path d="M 1 2 L 49 2 L 49 38 L 1 38 Z M 1 2 " clip-rule="nonzero"/></clipPath><clipPath id="5ca486ce3b"><path d="M 10.085938 44.085938 L -0.046875 13.550781 L 40.433594 0.121094 L 50.566406 30.65625 Z M 10.085938 44.085938 " clip-rule="nonzero"/></clipPath><clipPath id="32045bf375"><path d="M 10.085938 44.085938 L -0.046875 13.550781 L 40.433594 0.121094 L 50.566406 30.65625 Z M 10.085938 44.085938 " clip-rule="nonzero"/></clipPath><clipPath id="e5ecf88c77"><rect x="0" width="51" y="0" height="44"/></clipPath></defs><g clip-path="url(#87ecc122c8)"><g mask="url(#059fe8d405)"><g transform="matrix(1, 0, 0, 1, 0, 5)"><g clip-path="url(#e5ecf88c77)"><g clip-path="url(#14a8c50d47)"><g clip-path="url(#5ca486ce3b)"><g clip-path="url(#32045bf375)"><path fill="#253754" d="M 41.769531 7.59375 C 42.1875 8.742188 42.285156 9.957031 42.421875 11.152344 C 42.609375 12.859375 43.226562 14.371094 44.230469 15.742188 C 45.113281 16.960938 45.988281 18.1875 46.644531 19.550781 C 47.617188 21.589844 48.566406 23.640625 48.851562 25.925781 C 49.101562 28.015625 48.273438 29.496094 46.429688 30.464844 C 45.007812 31.214844 43.515625 31.289062 41.972656 31.21875 C 41.242188 31.179688 40.527344 31.085938 39.785156 31.179688 C 38.226562 31.382812 36.929688 32.054688 35.820312 33.148438 C 34.6875 34.28125 33.464844 35.304688 32.089844 36.140625 C 29.75 37.5625 27.234375 38.246094 24.496094 37.789062 C 24.421875 37.777344 24.34375 37.757812 24.257812 37.75 C 21.152344 37.164062 18.710938 34.757812 17.980469 31.683594 C 17.925781 31.441406 17.863281 31.195312 17.816406 30.949219 C 17.492188 29.347656 16.457031 28.363281 14.980469 27.785156 C 13.851562 27.332031 12.664062 27.089844 11.480469 26.824219 C 11.082031 26.734375 10.675781 26.644531 10.277344 26.550781 C 6.929688 25.746094 4.507812 23.710938 2.78125 20.800781 C 2.148438 19.734375 1.652344 18.613281 1.480469 17.367188 C 1.171875 15.214844 2.214844 13.441406 4.265625 12.660156 C 5.40625 12.230469 6.582031 12.171875 7.773438 12.289062 C 8.960938 12.40625 10.109375 12.699219 11.269531 12.953125 C 12.367188 13.191406 13.46875 13.398438 14.59375 13.378906 C 16.613281 13.34375 18.359375 12.578125 19.929688 11.347656 C 21.1875 10.351562 22.339844 9.246094 23.519531 8.171875 C 25.148438 6.695312 26.871094 5.332031 28.882812 4.414062 C 31.445312 3.25 34.09375 2.570312 36.933594 3.242188 C 38.765625 3.679688 40.25 4.613281 41.234375 6.273438 C 41.46875 6.6875 41.597656 7.148438 41.769531 7.59375 Z M 41.769531 7.59375 " fill-opacity="1" fill-rule="nonzero"/></g></g></g></g></g></g></g></svg>