<svg xmlns="http://www.w3.org/2000/svg" xmlns:xlink="http://www.w3.org/1999/xlink" width="500" zoomAndPan="magnify" viewBox="0 0 375 374.999991" height="500" preserveAspectRatio="xMidYMid meet" version="1.0"><defs><g/><clipPath id="417bfc51d6"><path d="M 43.007812 64 L 249 64 L 249 257 L 43.007812 257 Z M 43.007812 64 " clip-rule="nonzero"/></clipPath><clipPath id="269309d5c7"><path d="M 110 33.191406 L 254.71875 33.191406 L 254.71875 172.691406 L 110 172.691406 Z M 110 33.191406 " clip-rule="nonzero"/></clipPath></defs><g clip-path="url(#417bfc51d6)"><path fill="#ffffff" d="M 246.519531 184.238281 L 242.59375 196.609375 C 232.183594 220.933594 214.636719 238.179688 189.957031 248.347656 C 165.128906 258.46875 138.707031 258.65625 110.683594 248.910156 C 84.242188 238.335938 65.136719 221.34375 53.371094 197.933594 C 49.617188 190.378906 46.921875 182.480469 45.292969 174.242188 L 43.738281 161.761719 C 43.261719 153.320312 44.039062 144.8125 46.0625 136.242188 C 53.070312 110.132812 68.089844 90.609375 91.125 77.675781 C 114.15625 64.738281 139.949219 61.335938 168.503906 67.472656 C 196.738281 74.933594 218.195312 89.644531 232.871094 111.609375 C 247.546875 133.578125 252.097656 157.785156 246.519531 184.238281 " fill-opacity="1" fill-rule="nonzero"/></g><path fill="#ff7f30" d="M 203.515625 236.851562 L 199.585938 249.222656 C 189.175781 273.546875 171.628906 290.792969 146.949219 300.960938 C 122.125 311.082031 95.699219 311.269531 67.675781 301.523438 C 41.234375 290.949219 22.132812 273.957031 10.363281 250.546875 C 6.609375 242.992188 3.914062 235.09375 2.285156 226.855469 L 0.730469 214.378906 C 0.253906 205.933594 1.03125 197.429688 3.054688 188.859375 C 10.0625 162.746094 25.082031 143.226562 48.117188 130.289062 C 71.148438 117.351562 96.941406 113.949219 125.496094 120.085938 C 153.730469 127.546875 175.1875 142.257812 189.863281 164.226562 C 204.539062 186.191406 209.089844 210.398438 203.515625 236.851562 " fill-opacity="1" fill-rule="nonzero"/><g fill="#4c636b" fill-opacity="1"><g transform="translate(19.902848, 272.968858)"><g><path d="M 81.5 -6.6875 C 80.601562 -6.976562 79.597656 -8.535156 78.484375 -11.359375 C 77.367188 -14.179688 76.179688 -17.671875 74.921875 -21.828125 C 73.660156 -25.984375 72.472656 -30.285156 71.359375 -34.734375 C 70.242188 -39.191406 69.238281 -43.203125 68.34375 -46.765625 C 67.457031 -50.328125 66.867188 -52.921875 66.578125 -54.546875 L 49.203125 -54.328125 C 47.578125 -47.648438 46.171875 -41.007812 44.984375 -34.40625 C 43.796875 -27.800781 42.90625 -21.082031 42.3125 -14.25 C 42.3125 -12.914062 41.675781 -12.25 40.40625 -12.25 C 39.144531 -12.25 38.59375 -12.914062 38.75 -14.25 C 39.34375 -20.925781 40.191406 -27.640625 41.296875 -34.390625 C 42.410156 -41.148438 44.007812 -47.796875 46.09375 -54.328125 L 44.09375 -54.328125 C 43.34375 -51.660156 42.597656 -48.429688 41.859375 -44.640625 C 41.117188 -40.859375 40.414062 -37.148438 39.75 -33.515625 C 39.082031 -29.878906 38.523438 -26.832031 38.078125 -24.375 C 37.628906 -21.925781 37.40625 -20.703125 37.40625 -20.703125 L 36.078125 -10.6875 C 35.628906 -5.644531 33.921875 -2.007812 30.953125 0.21875 C 27.984375 2.445312 24.71875 3.335938 21.15625 2.890625 C 17.59375 2.453125 14.585938 0.75 12.140625 -2.21875 C 9.691406 -5.195312 8.835938 -9.28125 9.578125 -14.46875 C 10.460938 -21 11.5 -27.53125 12.6875 -34.0625 C 13.875 -40.59375 15.285156 -47.050781 16.921875 -53.4375 C 15.878906 -53.289062 14.835938 -53.179688 13.796875 -53.109375 C 12.765625 -53.035156 11.800781 -53 10.90625 -53 C 11.207031 -53.738281 11.285156 -54.40625 11.140625 -55 C 7.578125 -55.882812 4.976562 -57.8125 3.34375 -60.78125 C 1.707031 -63.75 1.257812 -67.050781 2 -70.6875 C 2.75 -74.332031 4.828125 -77.675781 8.234375 -80.71875 C 11.648438 -83.757812 16.695312 -85.800781 23.375 -86.84375 C 25.007812 -94.257812 26.789062 -101.566406 28.71875 -108.765625 C 30.65625 -115.960938 33.03125 -122.976562 35.84375 -129.8125 C 37.1875 -132.78125 38.671875 -136.007812 40.296875 -139.5 C 41.929688 -142.988281 43.972656 -146.03125 46.421875 -148.625 C 48.867188 -151.21875 51.953125 -152.515625 55.671875 -152.515625 C 57.597656 -152.671875 59.523438 -152.15625 61.453125 -150.96875 C 63.378906 -149.78125 64.789062 -148.296875 65.6875 -146.515625 C 68.945312 -146.359375 71.65625 -145.203125 73.8125 -143.046875 C 75.96875 -140.898438 77.191406 -138.046875 77.484375 -134.484375 C 77.785156 -130.035156 78.15625 -125.546875 78.59375 -121.015625 C 79.039062 -116.484375 79.488281 -112.066406 79.9375 -107.765625 C 80.082031 -107.617188 80.226562 -107.546875 80.375 -107.546875 C 80.53125 -111.398438 80.71875 -115.21875 80.9375 -119 C 81.15625 -122.789062 81.488281 -126.539062 81.9375 -130.25 C 81.9375 -130.84375 82.046875 -129.503906 82.265625 -126.234375 C 82.492188 -122.972656 82.753906 -118.78125 83.046875 -113.65625 C 83.347656 -108.539062 83.644531 -103.421875 83.9375 -98.296875 C 84.238281 -93.179688 84.613281 -88.914062 85.0625 -85.5 C 89.363281 -85.050781 92.703125 -83.601562 95.078125 -81.15625 C 97.453125 -78.707031 98.9375 -75.882812 99.53125 -72.6875 C 100.125 -69.5 99.828125 -66.347656 98.640625 -63.234375 C 97.453125 -60.117188 95.300781 -57.597656 92.1875 -55.671875 C 93.664062 -49.140625 95.222656 -41.753906 96.859375 -33.515625 C 98.492188 -25.273438 99.753906 -17.816406 100.640625 -11.140625 C 101.234375 -6.085938 100.820312 -2.265625 99.40625 0.328125 C 98 2.929688 96.144531 4.378906 93.84375 4.671875 C 91.550781 4.972656 89.253906 4.15625 86.953125 2.21875 C 84.648438 0.289062 82.832031 -2.675781 81.5 -6.6875 Z M 48.546875 -83.28125 C 50.171875 -83.570312 52.28125 -83.753906 54.875 -83.828125 C 57.476562 -83.898438 59.523438 -84.015625 61.015625 -84.171875 C 60.710938 -86.097656 60.375 -88.84375 60 -92.40625 C 59.632812 -95.96875 59.191406 -99.789062 58.671875 -103.875 C 58.148438 -107.957031 57.519531 -111.703125 56.78125 -115.109375 C 55 -108.878906 53.4375 -103.3125 52.09375 -98.40625 C 50.757812 -93.507812 49.578125 -88.46875 48.546875 -83.28125 Z M 48.546875 -83.28125 "/></g></g></g><g fill="#4c636b" fill-opacity="1"><g transform="translate(124.547161, 272.968858)"><g><path d="M 123.796875 -90.171875 C 122.316406 -86.316406 120.722656 -82.53125 119.015625 -78.8125 C 117.304688 -75.101562 115.335938 -71.546875 113.109375 -68.140625 C 107.472656 -58.785156 100.796875 -50.617188 93.078125 -43.640625 C 91.140625 -41.566406 89.054688 -39.488281 86.828125 -37.40625 C 84.609375 -35.332031 82.238281 -33.476562 79.71875 -31.84375 C 75.707031 -29.019531 71.507812 -26.492188 67.125 -24.265625 C 62.75 -22.046875 58.1875 -20.34375 53.4375 -19.15625 L 50.984375 -18.484375 C 48.609375 -17.890625 46.160156 -17.367188 43.640625 -16.921875 C 41.117188 -16.472656 38.597656 -16.25 36.078125 -16.25 C 36.816406 -15.507812 38.445312 -15.210938 40.96875 -15.359375 C 43.488281 -15.515625 46.007812 -15.8125 48.53125 -16.25 C 51.0625 -16.695312 52.625 -16.992188 53.21875 -17.140625 C 58.414062 -18.484375 63.390625 -20.414062 68.140625 -22.9375 C 70.359375 -23.976562 73.617188 -25.941406 77.921875 -28.828125 C 82.234375 -31.722656 86.984375 -35.546875 92.171875 -40.296875 C 97.367188 -45.046875 102.488281 -50.613281 107.53125 -57 C 112.582031 -63.382812 116.96875 -70.660156 120.6875 -78.828125 C 120.976562 -78.234375 121.273438 -77.785156 121.578125 -77.484375 C 121.128906 -75.703125 120.71875 -73.921875 120.34375 -72.140625 C 119.976562 -70.359375 119.5 -68.578125 118.90625 -66.796875 L 118.234375 -64.796875 C 118.085938 -64.347656 117.898438 -63.898438 117.671875 -63.453125 C 117.453125 -63.015625 117.191406 -62.570312 116.890625 -62.125 C 113.179688 -56.332031 109.132812 -50.875 104.75 -45.75 C 100.375 -40.632812 95.515625 -35.925781 90.171875 -31.625 C 85.421875 -27.90625 80.375 -24.632812 75.03125 -21.8125 C 69.6875 -19 63.972656 -16.847656 57.890625 -15.359375 C 52.097656 -14.023438 46.234375 -13.359375 40.296875 -13.359375 C 39.410156 -13.503906 38.335938 -13.765625 37.078125 -14.140625 C 35.816406 -14.515625 35.109375 -15.21875 34.953125 -16.25 C 32.734375 -16.40625 30.546875 -16.738281 28.390625 -17.25 C 26.234375 -17.769531 24.117188 -18.625 22.046875 -19.8125 C 17.148438 -22.632812 13.21875 -26.867188 10.25 -32.515625 C 4.3125 -38.890625 0.820312 -46.382812 -0.21875 -55 C -1.5625 -63.90625 -0.453125 -72.515625 3.109375 -80.828125 C 6.679688 -89.140625 11.285156 -96.5625 16.921875 -103.09375 C 22.117188 -109.03125 27.984375 -114.296875 34.515625 -118.890625 C 41.046875 -123.492188 48.019531 -126.984375 55.4375 -129.359375 C 55.738281 -130.847656 56.707031 -131.816406 58.34375 -132.265625 C 66.351562 -134.335938 74.660156 -135.851562 83.265625 -136.8125 C 91.878906 -137.78125 100.269531 -137.453125 108.4375 -135.828125 C 110.363281 -135.523438 112.515625 -134.960938 114.890625 -134.140625 C 117.265625 -133.328125 119.191406 -132.140625 120.671875 -130.578125 C 122.160156 -129.023438 122.460938 -126.914062 121.578125 -124.25 C 121.128906 -123.0625 120.382812 -122.242188 119.34375 -121.796875 C 118.300781 -121.347656 117.1875 -120.976562 116 -120.6875 C 116.300781 -120.09375 116.226562 -119.457031 115.78125 -118.78125 C 115.332031 -118.113281 114.738281 -117.78125 114 -117.78125 C 111.625 -117.9375 109.175781 -117.9375 106.65625 -117.78125 C 104.132812 -117.632812 101.609375 -117.632812 99.078125 -117.78125 C 96.859375 -117.78125 94.632812 -117.707031 92.40625 -117.5625 C 90.175781 -117.414062 87.945312 -117.191406 85.71875 -116.890625 C 76.664062 -115.554688 68.054688 -112.738281 59.890625 -108.4375 C 45.492188 -100.570312 34.882812 -89.289062 28.0625 -74.59375 C 26.425781 -71.03125 25.015625 -67.242188 23.828125 -63.234375 C 22.640625 -59.222656 22.046875 -55.21875 22.046875 -51.21875 C 21.898438 -47.945312 22.378906 -44.675781 23.484375 -41.40625 C 24.597656 -38.144531 26.492188 -35.695312 29.171875 -34.0625 L 32.0625 -33.40625 C 34.738281 -32.957031 37.410156 -32.84375 40.078125 -33.0625 C 42.753906 -33.289062 45.425781 -33.703125 48.09375 -34.296875 C 48.832031 -34.585938 49.609375 -34.878906 50.421875 -35.171875 C 51.242188 -35.472656 51.953125 -35.695312 52.546875 -35.84375 C 59.816406 -38.96875 66.347656 -43.347656 72.140625 -48.984375 C 75.410156 -52.097656 78.378906 -55.398438 81.046875 -58.890625 C 83.722656 -62.378906 86.25 -65.976562 88.625 -69.6875 C 89.8125 -71.46875 90.882812 -73.25 91.84375 -75.03125 C 92.8125 -76.8125 93.816406 -78.59375 94.859375 -80.375 L 93.96875 -80.375 C 91.59375 -79.78125 89.175781 -79.257812 86.71875 -78.8125 C 84.269531 -78.375 81.785156 -77.859375 79.265625 -77.265625 C 74.222656 -76.222656 69.25 -74.957031 64.34375 -73.46875 C 59.445312 -71.988281 54.476562 -70.582031 49.4375 -69.25 C 46.3125 -68.507812 43.707031 -69.140625 41.625 -71.140625 C 39.550781 -73.140625 38.515625 -75.585938 38.515625 -78.484375 C 38.515625 -81.378906 39.925781 -83.570312 42.75 -85.0625 L 44.09375 -85.71875 C 43.9375 -87.5 44.265625 -89.207031 45.078125 -90.84375 C 45.898438 -92.476562 47.425781 -93.59375 49.65625 -94.1875 C 49.800781 -94.332031 49.984375 -94.40625 50.203125 -94.40625 C 50.429688 -94.40625 50.617188 -94.476562 50.765625 -94.625 C 55.816406 -96.113281 60.898438 -97.523438 66.015625 -98.859375 C 71.140625 -100.191406 76.222656 -101.453125 81.265625 -102.640625 C 86.460938 -103.828125 91.617188 -105.085938 96.734375 -106.421875 C 101.859375 -107.765625 107.019531 -108.734375 112.21875 -109.328125 C 114.894531 -109.617188 117.457031 -109.097656 119.90625 -107.765625 C 122.351562 -106.429688 123.945312 -104.425781 124.6875 -101.75 C 125.28125 -99.820312 125.460938 -97.851562 125.234375 -95.84375 C 125.015625 -93.84375 124.535156 -91.953125 123.796875 -90.171875 Z M 123.796875 -90.171875 "/></g></g></g><g fill="#4c636b" fill-opacity="1"><g transform="translate(249.229737, 272.968858)"><g><path d="M 107.328125 -84.390625 C 111.035156 -78.742188 112.773438 -72.132812 112.546875 -64.5625 C 112.328125 -57 111.398438 -50.097656 109.765625 -43.859375 C 108.285156 -38.222656 106.132812 -32.65625 103.3125 -27.15625 C 100.488281 -21.664062 96.703125 -17.066406 91.953125 -13.359375 C 84.390625 -7.273438 75.519531 -3.226562 65.34375 -1.21875 C 55.175781 0.78125 45.421875 -0.0703125 36.078125 -3.78125 C 27.015625 -7.5 19.109375 -13.175781 12.359375 -20.8125 C 5.609375 -28.457031 1.191406 -37.179688 -0.890625 -46.984375 C -1.335938 -49.359375 -1.707031 -51.769531 -2 -54.21875 C -2.300781 -56.664062 -2.453125 -59.078125 -2.453125 -61.453125 C -2.304688 -69.617188 -1.269531 -77.597656 0.65625 -85.390625 C 2.59375 -93.179688 6.085938 -100.269531 11.140625 -106.65625 C 14.546875 -111.101562 18.515625 -115.628906 23.046875 -120.234375 C 27.578125 -124.835938 32.140625 -128.769531 36.734375 -132.03125 C 41.046875 -135.15625 45.5 -138.050781 50.09375 -140.71875 C 52.320312 -142.050781 54.769531 -143.085938 57.4375 -143.828125 C 60.113281 -144.578125 62.789062 -144.800781 65.46875 -144.5 C 67.84375 -144.351562 69.695312 -143.535156 71.03125 -142.046875 C 72.363281 -140.566406 73.03125 -138.863281 73.03125 -136.9375 C 73.769531 -135.601562 74.140625 -134.226562 74.140625 -132.8125 C 74.140625 -131.40625 74.066406 -129.882812 73.921875 -128.25 C 73.773438 -127.363281 73.703125 -125.507812 73.703125 -122.6875 C 73.703125 -119.863281 73.703125 -116.671875 73.703125 -113.109375 C 73.703125 -109.546875 73.738281 -106.164062 73.8125 -102.96875 C 73.882812 -99.78125 73.921875 -97.296875 73.921875 -95.515625 L 74.59375 -74.375 C 74.59375 -72.4375 74.628906 -70.539062 74.703125 -68.6875 C 74.773438 -66.832031 74.882812 -65.015625 75.03125 -63.234375 C 75.03125 -61.753906 75.066406 -60.234375 75.140625 -58.671875 C 75.222656 -57.109375 75.113281 -55.585938 74.8125 -54.109375 C 74.664062 -53.515625 74.257812 -53.066406 73.59375 -52.765625 C 72.925781 -52.472656 72.296875 -52.472656 71.703125 -52.765625 C 70.953125 -53.359375 70.503906 -53.734375 70.359375 -53.890625 C 70.066406 -53.734375 69.769531 -53.691406 69.46875 -53.765625 C 69.175781 -53.847656 68.878906 -53.890625 68.578125 -53.890625 C 67.097656 -54.328125 65.875 -55.066406 64.90625 -56.109375 C 63.9375 -57.148438 63.082031 -58.335938 62.34375 -59.671875 C 61.894531 -60.410156 61.5625 -61.148438 61.34375 -61.890625 C 61.125 -62.640625 60.863281 -63.3125 60.5625 -63.90625 L 59.890625 -63.90625 L 59.890625 -63.234375 C 60.640625 -60.710938 61.828125 -58.078125 63.453125 -55.328125 C 65.085938 -52.585938 67.539062 -51.515625 70.8125 -52.109375 C 72.4375 -52.398438 73.582031 -52.023438 74.25 -50.984375 C 74.925781 -49.953125 75.078125 -48.84375 74.703125 -47.65625 C 74.328125 -46.46875 73.328125 -45.796875 71.703125 -45.640625 C 68.878906 -45.347656 66.09375 -46.015625 63.34375 -47.640625 C 60.601562 -49.273438 58.640625 -51.429688 57.453125 -54.109375 C 55.960938 -57.523438 55.101562 -61.050781 54.875 -64.6875 C 54.65625 -68.320312 54.472656 -71.921875 54.328125 -75.484375 L 53 -118.453125 C 52.550781 -118.160156 52.101562 -117.828125 51.65625 -117.453125 C 51.207031 -117.078125 50.6875 -116.742188 50.09375 -116.453125 C 42.53125 -110.660156 36.59375 -103.976562 32.28125 -96.40625 C 27.976562 -88.84375 24.9375 -80.3125 23.15625 -70.8125 C 23.007812 -69.914062 22.898438 -69.351562 22.828125 -69.125 C 22.753906 -68.90625 22.71875 -68.425781 22.71875 -67.6875 C 22.5625 -67.09375 22.484375 -66.5 22.484375 -65.90625 C 22.484375 -65.3125 22.484375 -64.71875 22.484375 -64.125 C 22.335938 -61.457031 22.488281 -58.859375 22.9375 -56.328125 C 23.382812 -53.804688 23.976562 -51.285156 24.71875 -48.765625 C 26.789062 -42.234375 29.90625 -36.296875 34.0625 -30.953125 C 38.21875 -25.609375 43.9375 -22.710938 51.21875 -22.265625 C 51.65625 -22.265625 52.132812 -22.226562 52.65625 -22.15625 C 53.175781 -22.082031 53.660156 -22.046875 54.109375 -22.046875 C 62.710938 -22.335938 70.0625 -25.15625 76.15625 -30.5 C 78.675781 -32.875 80.601562 -35.328125 81.9375 -37.859375 C 84.019531 -41.421875 85.359375 -45.238281 85.953125 -49.3125 C 86.546875 -53.394531 86.765625 -57.367188 86.609375 -61.234375 C 86.460938 -63.015625 86.316406 -64.757812 86.171875 -66.46875 C 86.023438 -68.175781 85.578125 -69.769531 84.828125 -71.25 C 83.347656 -74.519531 82.941406 -77.820312 83.609375 -81.15625 C 84.273438 -84.5 86.242188 -87.132812 89.515625 -89.0625 C 92.628906 -90.988281 95.890625 -91.429688 99.296875 -90.390625 C 102.710938 -89.359375 105.390625 -87.359375 107.328125 -84.390625 Z M 57.453125 -121.578125 C 56.410156 -120.679688 55.222656 -119.863281 53.890625 -119.125 C 54.179688 -115.414062 54.550781 -111.703125 55 -107.984375 C 55.445312 -104.273438 55.816406 -100.566406 56.109375 -96.859375 L 57.21875 -96.859375 C 57.070312 -101.015625 57 -105.132812 57 -109.21875 C 57 -113.300781 57.148438 -117.421875 57.453125 -121.578125 Z M 84.609375 -71.703125 C 84.609375 -71.847656 84.570312 -71.921875 84.5 -71.921875 C 84.425781 -71.921875 84.390625 -71.992188 84.390625 -72.140625 C 84.390625 -72.140625 84.425781 -72.101562 84.5 -72.03125 C 84.570312 -71.957031 84.609375 -71.847656 84.609375 -71.703125 Z M 84.828125 -71.25 C 84.679688 -71.394531 84.609375 -71.546875 84.609375 -71.703125 C 84.609375 -71.546875 84.644531 -71.46875 84.71875 -71.46875 C 84.789062 -71.46875 84.828125 -71.394531 84.828125 -71.25 Z M 84.828125 -71.25 "/></g></g></g><g clip-path="url(#269309d5c7)"><path fill="#4c636b" d="M 248.070312 33.890625 C 247.871094 34.089844 247.484375 34.03125 247.417969 33.757812 C 247.367188 33.222656 248.21875 33.394531 248.070312 33.890625 Z M 137.378906 149.179688 C 137.316406 149.003906 137.175781 148.898438 137.109375 148.722656 C 136.792969 148.75 136.84375 149.148438 136.394531 149.046875 C 136.265625 148.75 136.132812 148.476562 136.066406 148.128906 C 136.164062 147.964844 136.296875 147.832031 136.457031 147.738281 C 136.496094 147.476562 136.28125 147.46875 136.324219 147.210938 C 135.628906 147.359375 135.769531 148.246094 134.949219 148.394531 C 135.007812 147.839844 135.199219 147.417969 135.734375 147.34375 C 135.613281 147.101562 135.421875 146.804688 135.734375 146.617188 C 135.703125 146.46875 135.378906 146.625 135.40625 146.425781 C 135.355469 145.976562 135.695312 145.929688 135.867188 145.699219 C 135.820312 145.457031 135.792969 145.203125 135.734375 144.976562 C 135.519531 144.929688 135.171875 145.546875 134.75 145.308594 C 134.667969 144.796875 134.925781 144.085938 135.539062 144.058594 C 135.421875 143.101562 135.222656 142.234375 135.140625 141.238281 C 135.015625 141.125 134.527344 141.480469 134.355469 141.167969 C 134.355469 140.644531 134.757812 140.519531 135.015625 140.25 C 134.957031 139.84375 134.890625 139.460938 134.882812 139.007812 C 134.460938 139.046875 134.6875 139.40625 134.75 139.660156 C 134.519531 139.820312 134.394531 140.089844 134.089844 140.183594 C 133.957031 139.875 134.050781 139.40625 134.089844 139.066406 C 133.859375 138.652344 133.320312 138.535156 133.371094 137.824219 C 133.683594 137.75 133.601562 138.074219 133.761719 138.148438 C 133.90625 137.703125 133.949219 136.972656 133.761719 136.707031 C 133.304688 136.949219 133.238281 137.578125 132.585938 137.625 C 132.351562 137.179688 132.230469 136.617188 131.859375 136.3125 C 131.847656 136.097656 132.097656 136.15625 132.1875 136.054688 C 132.214844 135.75 132.121094 135.328125 132.253906 135.128906 C 132.617188 134.964844 132.898438 135.277344 133.113281 135.460938 C 133.171875 135.875 132.710938 135.765625 132.585938 135.988281 C 132.503906 136.394531 132.683594 136.542969 132.777344 136.773438 C 133.5625 136.625 132.941406 135.082031 133.628906 135.003906 C 134.007812 134.957031 134.058594 135.230469 134.222656 135.527344 C 134.40625 135.1875 134.140625 134.734375 134.089844 134.410156 C 133.695312 134.667969 133.195312 134.730469 132.710938 134.667969 C 132.699219 133.839844 133.453125 133.839844 133.4375 133.160156 C 132.84375 132.8125 131.652344 131.324219 132.777344 130.863281 C 132.980469 130.996094 132.980469 131.121094 132.914062 131.390625 C 133.015625 131.253906 133.3125 131.308594 133.4375 131.1875 C 133.253906 131.167969 132.851562 131.175781 132.980469 130.664062 C 132.503906 130.574219 132.402344 131.0625 132.0625 130.730469 C 132.617188 130.191406 131.941406 128.789062 132.585938 128.300781 C 132.351562 128.125 132.179688 127.871094 131.792969 127.84375 C 131.890625 127.28125 131.675781 127.414062 131.46875 127.183594 C 131.601562 127 131.71875 126.976562 131.601562 126.664062 C 131.550781 126.53125 131.359375 127.011719 131.203125 126.789062 C 131.253906 126.421875 131.410156 125.875 130.875 125.804688 C 130.824219 125.539062 131.097656 125.390625 131.269531 125.546875 C 131.121094 125.304688 130.734375 125.09375 130.941406 124.695312 C 130.640625 124.734375 130.519531 124.59375 130.285156 124.5625 C 130.292969 124.339844 130.011719 124.050781 130.152344 123.902344 C 130.441406 123.667969 130.238281 124.355469 130.550781 124.296875 C 130.957031 124.027344 131.34375 123.734375 131.402344 123.117188 C 131.292969 123.117188 131.179688 123.117188 131.078125 123.117188 C 130.792969 123.273438 131.320312 123.390625 131.007812 123.644531 C 130.660156 123.710938 130.660156 123.636719 130.417969 123.511719 C 131.0625 122.894531 130.609375 122.230469 130.417969 121.472656 C 130.378906 121.402344 130.097656 121.527344 129.957031 121.40625 C 129.796875 121.015625 129.945312 120.511719 130.285156 120.421875 C 130.367188 119.378906 129.5 119.28125 129.5 118.320312 C 129.542969 118.015625 129.847656 117.972656 130.023438 117.800781 C 129.882812 117.734375 129.394531 117.875 129.234375 117.667969 C 129.160156 117.195312 129.425781 117.070312 129.691406 116.941406 C 129.433594 116.683594 128.824219 116.765625 128.582031 116.484375 C 128.398438 116.210938 128.375 115.5 128.648438 115.308594 C 128.972656 115.242188 128.996094 115.742188 129.300781 115.5 C 128.609375 114.328125 127.976562 112.539062 127.722656 110.710938 C 127.234375 110.703125 126.6875 110.332031 127.070312 109.859375 C 127.417969 109.746094 127.277344 110.132812 127.597656 110.050781 C 128.175781 109.570312 127.375 108.578125 127.328125 107.886719 C 127.195312 107.875 126.980469 107.976562 126.871094 107.6875 C 126.746094 107.324219 127.121094 107.457031 127.136719 107.230469 C 127.125 106.933594 126.65625 107.089844 126.613281 106.835938 C 126.433594 106.628906 126.789062 106.53125 126.871094 106.378906 C 126.796875 106.171875 126.464844 106.214844 126.410156 105.976562 C 126.398438 105.644531 126.632812 105.96875 126.679688 105.71875 C 126.546875 105.328125 126.425781 104.910156 126.210938 104.601562 C 125.894531 102.097656 124.910156 99.980469 124.375 97.574219 C 124.289062 97.390625 124 97.390625 123.917969 97.183594 C 123.695312 94.992188 122.925781 93.25 122.214844 91.472656 C 121.023438 88.5 119.675781 85.378906 118.402344 82.21875 C 118.128906 81.523438 117.914062 80.671875 117.617188 80.441406 C 117.304688 80.207031 116.75 80.109375 116.367188 79.917969 C 114.0625 78.746094 112.035156 77.214844 111.507812 74.140625 C 111.5 73.882812 111.191406 73.933594 111.183594 73.683594 C 111.339844 73.425781 111.539062 73.210938 111.507812 72.765625 C 111.566406 72.484375 111.078125 72.757812 111.117188 72.5 C 111.554688 72.253906 111.714844 71.742188 111.902344 71.253906 C 111.84375 71.113281 111.605469 71.164062 111.449219 71.085938 C 111.316406 71.542969 110.496094 71.261719 110.605469 70.78125 C 110.664062 70.738281 110.703125 70.664062 110.738281 70.589844 C 110.984375 70.625 111.191406 70.699219 111.324219 70.839844 C 111.449219 70.320312 112.34375 70.566406 112.492188 70.070312 C 112.472656 69.855469 112.308594 69.78125 112.367188 69.480469 C 112.121094 69.53125 112.210938 69.902344 111.902344 69.878906 C 111.441406 69.789062 111.308594 69.382812 110.855469 69.285156 C 111.0625 68.40625 111.980469 69.8125 112.234375 68.953125 C 112.53125 68.988281 112.605469 69.242188 112.886719 69.285156 C 113.234375 69.300781 113.234375 68.976562 113.476562 68.894531 C 113.121094 68.738281 112.9375 68.160156 113.285156 67.84375 C 114.085938 67.910156 114.25 67.265625 114.855469 66.984375 C 114.882812 66.71875 114.640625 66.722656 114.730469 66.398438 C 115.003906 66.324219 114.980469 66.53125 115.1875 66.523438 C 115.351562 66.84375 114.90625 67.285156 115.320312 67.507812 C 115.476562 67.375 115.59375 67.066406 115.734375 66.769531 C 115.691406 66.777344 115.648438 66.785156 115.59375 66.777344 C 115.566406 66.722656 115.535156 66.664062 115.460938 66.648438 C 115.394531 66.316406 115.757812 66.175781 116.003906 66.292969 C 116.121094 66.140625 116.261719 66.050781 116.433594 66.066406 C 116.707031 66.09375 116.792969 66.167969 116.824219 66.523438 C 117.007812 66.421875 117.023438 66.152344 117.351562 66.199219 C 117.808594 66.160156 117.652344 66.730469 118.007812 66.789062 C 118.0625 66.746094 117.972656 66.40625 118.046875 66.226562 C 117.875 66.289062 117.636719 66.222656 117.566406 66.058594 C 117.535156 65.65625 118 65.585938 118.214844 65.792969 C 118.261719 65.945312 118.238281 66.058594 118.1875 66.132812 C 118.910156 66.117188 119.128906 66.605469 119.652344 66.789062 C 119.925781 66.84375 119.667969 66.355469 119.875 66.332031 C 119.84375 66.332031 119.824219 66.324219 119.792969 66.316406 C 119.769531 66.050781 119.816406 65.867188 120.058594 65.859375 C 120.222656 65.96875 120.1875 66.316406 119.90625 66.332031 L 119.910156 66.332031 C 120.339844 66.316406 120.230469 66.851562 120.570312 66.925781 C 120.519531 66.515625 120.171875 66.191406 120.246094 65.871094 C 120.71875 65.652344 121 66.148438 121.355469 66.265625 C 121.207031 66.464844 121.140625 66.746094 121.03125 66.984375 C 121.539062 67.175781 122.148438 67.265625 122.539062 67.574219 C 122.742188 67.5625 122.652344 67.25 122.933594 67.316406 C 122.800781 67.730469 122.992188 67.820312 123.257812 67.96875 C 123.40625 67.921875 123.25 67.566406 123.523438 67.640625 C 123.503906 67.917969 123.84375 68.0625 123.65625 68.300781 C 124.496094 69.011719 125.417969 69.632812 126.019531 70.664062 C 126.257812 71.0625 126.335938 71.640625 126.613281 71.914062 C 126.832031 72.128906 127.515625 72.269531 128.054688 72.5 C 131.28125 73.882812 134.609375 75.4375 137.570312 77.097656 C 140.980469 79.007812 144.253906 81.347656 147.417969 83.332031 C 149.046875 84.351562 150.710938 85.394531 152.214844 86.617188 C 153.703125 87.824219 155.144531 89.121094 156.746094 90.097656 C 159.164062 91.578125 161.21875 93.644531 163.371094 95.546875 C 164.570312 96.605469 165.792969 97.390625 166.527344 98.894531 C 167.082031 98.273438 165.84375 97.796875 166.324219 97.25 C 166.667969 97.257812 166.578125 97.589844 166.527344 97.84375 C 166.902344 97.5625 166.695312 96.703125 166.851562 96.199219 C 166.3125 95.605469 166.875 95.15625 166.984375 94.496094 C 166.828125 94.164062 166.308594 94.570312 166.257812 94.105469 C 166.644531 94.097656 166.703125 93.816406 167.050781 93.511719 C 166.859375 93.378906 166.457031 93.445312 166.257812 93.3125 C 166.222656 93.03125 166.3125 92.875 166.324219 92.652344 C 166.554688 92.867188 166.621094 92.703125 166.917969 92.652344 C 166.8125 92.363281 166.554688 92.230469 166.457031 91.933594 C 166.554688 91.703125 166.695312 91.519531 166.851562 91.34375 C 166.84375 91.046875 166.59375 90.988281 166.660156 90.625 C 166.777344 90.335938 167.191406 90.511719 167.375 90.425781 C 167.441406 90.046875 167.050781 90.21875 167.050781 89.832031 C 167.042969 89.433594 167.746094 89.226562 167.441406 88.65625 C 167.363281 89.15625 166.792969 89.5 166.71875 90.03125 C 166.472656 89.988281 166.480469 89.625 166.660156 89.507812 C 166.53125 89.253906 166.214844 89.203125 166.257812 88.78125 C 166.421875 88.683594 166.519531 88.625 166.71875 88.714844 C 166.800781 88.359375 166.71875 88.375 166.660156 88.0625 C 166.554688 88.382812 165.957031 88.507812 165.675781 88.253906 C 165.605469 87.664062 166.371094 87.640625 166.660156 87.929688 C 166.875 87.402344 166.398438 87.234375 166.191406 86.945312 C 166.207031 86.433594 166.808594 86.507812 166.71875 85.894531 C 166.605469 85.730469 166.171875 86.042969 166 85.828125 C 166.035156 85.457031 166.621094 85.566406 166.785156 85.5 C 166.835938 84.847656 167.007812 84.324219 167.246094 83.855469 C 166.894531 83.226562 166.785156 81.84375 167.308594 81.238281 C 167.464844 81.058594 167.734375 81.089844 167.835938 80.835938 C 167.636719 80.734375 167.296875 80.761719 167.175781 80.578125 C 167.109375 79.984375 167.25 78.925781 167.644531 78.410156 C 168.191406 78.347656 168.066406 78.976562 168.101562 79.265625 C 168.25 79.132812 168.125 78.71875 168.160156 78.476562 C 167.59375 78.246094 167.238281 76.90625 167.703125 76.4375 C 167.902344 76.4375 167.769531 76.773438 167.96875 76.773438 C 168.273438 76.410156 167.664062 76.386719 167.578125 76.046875 C 167.421875 76.292969 167.578125 76.839844 167.175781 76.839844 C 167.035156 76.5 166.984375 76.0625 166.785156 75.789062 C 167.191406 75.921875 167.125 75.667969 167.445312 75.585938 C 167.453125 74.964844 167.386719 74.253906 167.578125 73.816406 C 167.496094 73.589844 167.15625 73.625 167.175781 73.292969 C 167.453125 72.988281 167.851562 72.824219 168.363281 72.765625 C 168.222656 72.101562 168.050781 71.78125 167.644531 71.324219 C 167.746094 70.96875 167.734375 70.472656 167.511719 70.269531 C 167.734375 70.058594 167.785156 69.671875 167.835938 69.285156 C 167.941406 69.191406 168.324219 69.191406 168.429688 69.285156 C 168.523438 68.789062 168.140625 68.785156 168.226562 68.300781 C 168.007812 68.199219 167.628906 68.242188 167.578125 67.96875 C 167.664062 67.300781 168.027344 66.894531 168.226562 66.332031 C 168.109375 66.148438 167.761719 66.183594 167.703125 65.941406 C 167.976562 65.496094 167.933594 65.140625 167.902344 64.429688 C 168.125 64.105469 168.339844 63.769531 168.496094 63.378906 C 168.359375 63.246094 168.082031 63.261719 168.035156 63.046875 C 168.101562 62.476562 168.597656 61.824219 168.292969 61.476562 C 168.25 61.121094 168.648438 61.21875 168.5625 60.816406 C 168.546875 60.550781 168.132812 60.675781 168.160156 60.359375 C 168.496094 59.949219 168.953125 59.195312 168.359375 58.78125 C 168.496094 58.242188 168.730469 58.136719 168.496094 57.796875 C 168.507812 57.417969 168.894531 57.410156 168.953125 57.078125 C 168.789062 56.972656 168.546875 56.960938 168.496094 56.746094 C 168.515625 56.441406 168.753906 56.351562 169.019531 56.285156 C 168.71875 55.722656 169.308594 55.117188 169.019531 54.382812 C 168.960938 54.175781 169.117188 54.175781 169.210938 54.125 C 169.199219 53.851562 168.828125 53.9375 168.953125 53.53125 C 169.085938 53.398438 169.078125 53.167969 169.347656 53.332031 C 169.375 53.027344 169.433594 52.894531 169.347656 52.613281 C 170 49.378906 171.21875 46.363281 174.796875 45.914062 C 176.574219 45.691406 177.742188 46.652344 178.992188 47.492188 C 180.074219 48.207031 180.933594 48.695312 181.753906 49.460938 C 182.589844 50.230469 183.308594 51.097656 184.117188 51.820312 C 186.554688 54.011719 188.730469 56.589844 190.683594 59.308594 C 192.015625 61.15625 193.4375 62.914062 194.6875 64.6875 C 196.023438 66.597656 197.066406 68.597656 198.496094 70.339844 C 202.679688 75.433594 206.839844 80.859375 210.769531 86.226562 C 212.53125 82.472656 214.308594 78.832031 216.152344 75.261719 C 217.039062 73.535156 218.21875 71.914062 219.238281 70.207031 C 220.253906 68.503906 221.320312 66.800781 222.453125 65.28125 C 223.613281 63.734375 224.902344 62.238281 226.066406 60.683594 C 227.242188 59.121094 228.40625 57.597656 229.679688 56.152344 C 232.226562 53.257812 234.335938 49.992188 237.289062 47.492188 C 237.261719 47.253906 237.1875 47.113281 237.289062 46.898438 C 238.335938 46.824219 238.355469 45.726562 239.191406 45.453125 C 239.164062 44.839844 239.917969 44.78125 239.851562 44.078125 C 240.183594 44.011719 240.304688 43.738281 240.511719 43.550781 C 240.851562 43.507812 241.117188 43.738281 241.296875 43.484375 C 241.140625 43.320312 240.976562 42.894531 241.230469 42.699219 C 241.621094 42.597656 241.570312 42.929688 241.886719 42.894531 C 242.464844 42.648438 242.347656 42.464844 242.15625 41.910156 C 242.375 41.613281 242.785156 41.753906 243.140625 41.839844 C 243.375 41.449219 242.992188 41.175781 242.804688 40.988281 C 243.074219 40.8125 243.257812 40.5625 243.554688 40.421875 C 243.5625 40.398438 243.574219 40.382812 243.582031 40.375 C 243.40625 39.738281 243.84375 39.332031 243.789062 38.828125 C 244.117188 38.867188 244.160156 38.628906 244.582031 38.628906 C 244.554688 38.503906 244.492188 38.40625 244.472656 38.308594 C 244.464844 38.324219 244.464844 38.339844 244.457031 38.355469 C 243.753906 38.390625 244.273438 37.601562 244.546875 38.015625 C 244.746094 37.886719 244.9375 37.925781 245.183594 37.953125 C 245.183594 37.941406 245.183594 37.917969 245.183594 37.894531 C 245.242188 37.84375 245.324219 37.820312 245.398438 37.828125 C 245.414062 37.75 245.425781 37.644531 245.5 37.578125 C 245.707031 37.59375 245.773438 37.460938 246.027344 37.511719 C 246.292969 36.925781 246.972656 36.757812 247.335938 36.265625 C 248.097656 36.496094 248.707031 36.257812 249.566406 36.265625 C 249.824219 36.304688 249.734375 35.992188 249.898438 35.933594 C 250.246094 35.898438 250.210938 36.238281 250.425781 36.332031 C 250.527344 36.347656 250.625 36.378906 250.726562 36.402344 C 250.847656 36.238281 251.144531 36.214844 251.359375 36.320312 C 251.371094 36.429688 251.417969 36.503906 251.425781 36.621094 C 253.480469 37.390625 254.875 39.140625 254.824219 41.582031 C 254.75 44.597656 252.710938 46.171875 250.550781 47.164062 C 250.460938 48.289062 250.550781 49.609375 249.898438 50.1875 C 249.832031 55.628906 249.882812 61.367188 249.441406 66.660156 C 248.898438 73.054688 249.085938 79.757812 248.78125 86.351562 C 248.460938 93.371094 249.003906 99.910156 249.304688 106.378906 C 249.535156 111.289062 249.816406 116.152344 250.492188 120.691406 C 250.667969 121.9375 250.792969 122.914062 251.277344 123.839844 C 251.773438 124.785156 251.972656 125.777344 252.261719 126.859375 C 252.550781 127.941406 253.074219 128.902344 253.179688 129.878906 C 253.601562 133.855469 250.773438 136.558594 247.011719 136.246094 C 244.308594 136.023438 242.835938 134.277344 241.820312 132.117188 C 234.945312 129.796875 225.464844 129.738281 216.746094 129.488281 C 216.40625 129.992188 216.574219 130.582031 216.546875 131.132812 C 216.277344 137.078125 216.789062 143.660156 216.8125 149.773438 C 219.839844 149.574219 223 148.582031 226.332031 148.128906 C 228.976562 147.773438 230.960938 147.234375 233.226562 146.554688 C 233.890625 146.351562 234.492188 145.738281 235.0625 145.636719 C 237.199219 145.242188 237.703125 148.167969 235.914062 148.722656 C 235.511719 148.847656 235.074219 148.828125 234.667969 148.914062 C 233.675781 149.144531 232.535156 149.699219 231.449219 149.839844 C 231.484375 151.582031 231.742188 154.054688 231.1875 155.414062 C 230.996094 155.511719 230.796875 155.59375 230.464844 155.550781 C 229.730469 154.578125 229.863281 152.734375 229.746094 151.152344 C 229.285156 151.039062 228.332031 151.5 227.84375 151.152344 C 227.859375 152.097656 228.273438 154.203125 228.101562 155.347656 C 228.027344 155.867188 227.746094 156.726562 226.917969 156.535156 C 225.945312 155.644531 226.355469 153.378906 226.132812 151.742188 C 223.132812 152.59375 219.921875 153.230469 216.8125 153.972656 C 217.078125 155.917969 216.574219 157.667969 216.746094 159.8125 C 216.824219 160.863281 217.269531 162.414062 217.402344 163.558594 C 217.535156 164.746094 216.988281 166.808594 215.625 165.789062 C 215.195312 165.46875 215.003906 164.398438 215.035156 163.691406 C 215.09375 162.433594 215.375 160.828125 215.300781 159.164062 C 215.21875 157.347656 214.929688 155.726562 215.035156 154.363281 C 212.878906 154.625 210.664062 155.378906 208.273438 155.617188 C 207.828125 159.347656 208.6875 163.25 208.601562 166.839844 C 209.398438 167.601562 208.992188 168.957031 208.273438 169.136719 C 207.222656 169.402344 206.625 168.617188 206.699219 167.757812 C 206.726562 167.445312 206.992188 167.21875 207.03125 166.972656 C 207.058594 166.78125 206.980469 166.648438 206.964844 166.449219 C 206.707031 163.265625 207.046875 158.851562 206.503906 156.074219 C 203.242188 156.75 199.292969 157.3125 195.472656 157.652344 C 195.3125 157.960938 195.3125 158.445312 195.015625 158.636719 C 194.917969 160.160156 194.925781 162.09375 195.015625 164.019531 C 195.109375 166.167969 194.96875 168.550781 195.472656 169.925781 C 195.664062 170.4375 196.25 170.816406 196.066406 171.628906 C 195.800781 172.808594 193.949219 172.601562 193.769531 171.4375 C 193.703125 171.007812 193.792969 170.203125 193.769531 169.601562 C 193.601562 165.96875 193.875 161.347656 193.4375 157.976562 C 185.789062 158.332031 177.585938 159.222656 169.085938 158.828125 C 166.324219 158.703125 163.59375 158.953125 160.941406 158.828125 C 158.515625 158.71875 156.210938 158.660156 153.789062 158.503906 C 152.007812 158.386719 150.140625 158 148.398438 157.71875 C 146.644531 157.429688 145.046875 156.992188 143.609375 156.402344 C 140.738281 155.214844 138.289062 153.121094 137.636719 150.101562 C 137.40625 150.113281 137.140625 150.65625 136.523438 150.492188 C 135.6875 150.023438 136.445312 148.609375 137.378906 149.179688 Z M 135.542969 148.519531 C 135.875 148.476562 135.925781 149.121094 135.476562 148.980469 C 135.476562 148.808594 135.445312 148.609375 135.542969 148.519531 Z M 240.117188 44.335938 C 240.320312 44.34375 240.453125 44.277344 240.511719 44.144531 C 240.3125 44.1875 240.386719 43.957031 240.179688 44.011719 C 240.207031 44.164062 240.058594 44.152344 240.117188 44.335938 Z M 207.289062 93.769531 C 206.410156 94.273438 206.574219 92.617188 205.847656 92.527344 C 205.808594 92.75 205.816406 93.015625 205.589844 93.050781 C 205.425781 92.859375 205.261719 92.675781 205.320312 92.261719 C 205.417969 91.917969 205.855469 92.214844 205.980469 92 C 205.640625 91.421875 205.285156 90.855469 204.730469 90.492188 C 204.691406 90.601562 204.8125 90.875 204.664062 90.882812 C 203.632812 90.660156 204.316406 89.351562 203.617188 88.980469 C 203.605469 89.195312 203.765625 89.296875 203.484375 89.304688 C 203.046875 89.144531 203.242188 88.375 202.761719 88.589844 C 202.539062 88.246094 202.457031 88.019531 202.691406 87.671875 C 202.53125 87.367188 202.070312 87.90625 201.839844 87.535156 C 201.839844 87.054688 201.988281 86.707031 201.707031 86.351562 C 201.546875 86.167969 201.539062 86.730469 201.316406 86.484375 C 201.21875 85.417969 200.5 84.984375 199.738281 84.582031 C 199.570312 84.390625 199.769531 84.175781 199.738281 83.925781 C 199.078125 83.464844 198.792969 82.652344 198.234375 82.089844 C 198.042969 81.894531 197.816406 81.84375 197.644531 81.628906 C 197.496094 81.4375 197.4375 81.171875 197.3125 80.96875 C 195.917969 78.785156 193.933594 76.933594 192.261719 74.929688 C 190.542969 72.878906 188.996094 70.730469 187.136719 68.894531 C 187.242188 71.136719 186.996094 73.523438 187.003906 75.789062 C 187.011719 76.765625 187.53125 79.519531 186.746094 79.726562 C 186.203125 79.859375 185.871094 79.265625 185.828125 79 C 185.753906 78.578125 186.167969 78.171875 186.21875 77.691406 C 186.308594 76.800781 186.144531 75.402344 186.085938 74.078125 C 186.019531 72.589844 185.902344 70.984375 185.828125 69.746094 C 185.769531 68.878906 185.984375 67.84375 185.828125 67.25 C 185.714844 66.835938 185.078125 66.265625 184.777344 65.875 C 184.375 65.355469 183.933594 64.835938 183.660156 64.496094 C 182.800781 63.417969 182.148438 62.476562 181.363281 61.9375 C 181.378906 65.59375 181.652344 70.589844 182.015625 74.011719 C 182.050781 74.328125 182.207031 74.589844 182.148438 74.871094 C 181.941406 75.898438 180.421875 75.566406 180.3125 74.804688 C 180.257812 74.425781 180.535156 74.070312 180.570312 73.683594 C 180.695312 72.433594 180.328125 70.566406 180.246094 68.828125 C 180.164062 66.960938 180.117188 64.628906 179.984375 62.789062 C 179.910156 61.816406 180.257812 60.722656 179.652344 59.964844 C 178.511719 65.355469 177.4375 71.257812 176.765625 77.359375 C 175.964844 84.65625 174.667969 91.839844 174.335938 99.421875 C 174.261719 101.058594 174.667969 102.6875 174.535156 104.210938 C 174.328125 106.507812 172.640625 108.269531 170.464844 108.417969 C 168.539062 108.542969 167.183594 107.476562 166.527344 106.507812 C 166.175781 105.996094 166.148438 105.328125 165.734375 104.738281 C 165.320312 104.128906 164.332031 103.566406 163.570312 102.964844 C 162.792969 102.351562 162.089844 101.613281 161.46875 101.054688 C 160.019531 99.761719 158.382812 98.703125 156.871094 97.644531 C 150.488281 93.171875 144.375 88.789062 137.3125 85.242188 C 133.757812 83.449219 130.128906 81.769531 126.347656 80.1875 C 128.449219 84.457031 130.929688 88.515625 132.710938 93.121094 C 134.527344 97.785156 135.734375 102.78125 137.511719 107.691406 C 139.199219 112.371094 140.863281 117.144531 142.492188 122 C 144.152344 126.933594 145.417969 132.003906 146.632812 137.230469 C 151.105469 134.574219 155.835938 132.167969 161.144531 130.339844 C 161.246094 128.996094 161.195312 127.503906 161.210938 126.074219 C 159.0625 126.429688 156.390625 127.71875 153.984375 128.300781 C 151.378906 128.945312 149.082031 127.371094 148.867188 125.15625 C 148.632812 122.777344 150.125 121.660156 151.6875 120.949219 C 151.816406 120.796875 151.792969 120.492188 152.015625 120.425781 C 152.472656 120.433594 152.734375 120.015625 153.066406 120.425781 C 153.035156 119.59375 154.464844 119.789062 154.902344 119.832031 C 154.984375 119.609375 154.355469 119.359375 154.644531 118.914062 C 154.992188 118.796875 155.714844 118.730469 156.21875 118.847656 C 156.558594 118.9375 156.699219 119.335938 156.9375 119.179688 C 157.042969 119.070312 156.546875 119.003906 156.679688 118.65625 C 156.714844 118.449219 156.996094 118.492188 157.136719 118.390625 C 156.863281 118.367188 156.6875 118.167969 156.804688 117.929688 C 157.847656 117.523438 157.730469 118.566406 158.1875 118.847656 C 158.027344 118.566406 157.886719 118.375 158.1875 118.261719 C 158.617188 118.101562 158.871094 118.878906 159.300781 118.523438 C 159.410156 118.328125 159.09375 117.980469 159.367188 117.738281 C 160.1875 117.410156 161.003906 117.417969 161.535156 117.929688 C 162.0625 117.914062 161.964844 117.269531 162.320312 117.078125 C 162.617188 117.078125 162.726562 117.417969 162.921875 117.492188 C 162.914062 117.375 162.964844 117.234375 162.996094 117.128906 C 163.136719 117.09375 163.230469 117.121094 163.296875 117.191406 C 163.4375 117.027344 163.609375 116.96875 163.765625 117.277344 C 163.757812 116.984375 163.847656 116.78125 164.097656 116.753906 C 164.460938 116.910156 164.585938 117.203125 165.148438 117.011719 C 165.191406 116.789062 164.726562 116.285156 165.207031 116.09375 C 165.753906 116.09375 165.910156 116.714844 166.324219 116.6875 C 166.71875 116.648438 166.683594 116.414062 167.117188 116.160156 C 167.464844 116.332031 167.851562 116.574219 168.101562 116.160156 C 167.941406 115.855469 167.148438 116.191406 167.246094 115.636719 C 167.40625 115.40625 167.738281 115.5625 167.902344 115.703125 C 167.894531 115.40625 168.199219 115.425781 168.496094 115.433594 C 168.753906 115.679688 168.730469 116.207031 169.347656 116.09375 C 169.679688 115.96875 169.796875 115.628906 170.132812 115.5 C 169.769531 115.488281 169.441406 115.789062 169.28125 115.433594 C 169.441406 114.878906 170.78125 115.167969 170.789062 115.5 C 171.027344 115.078125 171.425781 115.183594 171.847656 115.257812 C 171.984375 115.140625 172.25 115.160156 172.40625 115.300781 C 172.855469 115.242188 173.234375 114.917969 173.484375 115.367188 C 173.476562 115.027344 173.65625 114.863281 173.878906 114.746094 C 173.820312 114.6875 173.78125 114.605469 173.757812 114.511719 C 173.804688 114.027344 174.664062 114.234375 174.476562 114.769531 C 174.425781 114.800781 174.367188 114.828125 174.351562 114.894531 C 174.433594 114.945312 174.507812 115 174.597656 115.042969 C 174.699219 114.488281 175.550781 114.679688 175.914062 114.382812 C 176.269531 114.363281 176.1875 114.769531 176.503906 114.785156 C 176.59375 114.613281 176.578125 114.339844 176.898438 114.382812 C 177.246094 114.347656 177.214844 114.800781 177.550781 114.585938 C 177.914062 114.664062 177.777344 114.242188 178.074219 114.257812 C 178.378906 114.222656 178.355469 114.503906 178.667969 114.449219 C 178.925781 114.472656 178.867188 114.167969 179.125 114.191406 C 179.3125 114.222656 179.496094 114.234375 179.6875 114.25 C 179.753906 114.101562 179.964844 114.09375 180.191406 114.117188 C 180.207031 114.160156 180.238281 114.207031 180.257812 114.25 C 181.148438 114.214844 182.085938 114.035156 183 113.925781 C 184.152344 113.792969 185.332031 113.753906 186.476562 113.667969 C 191.800781 113.257812 197.175781 112.96875 202.566406 113.207031 C 203.921875 113.265625 205.128906 113.214844 206.4375 113.273438 C 211.578125 113.503906 216.390625 114.117188 220.550781 114.976562 C 222.703125 115.421875 224.726562 115.78125 226.65625 116.488281 C 227.5625 116.820312 228.457031 117.277344 229.410156 117.539062 C 229.945312 117.6875 230.398438 117.804688 230.855469 117.996094 C 231.300781 118.183594 231.699219 118.5 232.171875 118.65625 C 232.734375 118.839844 232.914062 118.691406 233.226562 118.847656 C 234.402344 119.449219 233.832031 121.484375 232.300781 121.152344 C 231.789062 121.03125 231.507812 120.402344 231.1875 120.234375 C 230.847656 120.046875 230.335938 120.019531 229.871094 119.832031 C 229.484375 119.675781 229.101562 119.410156 228.695312 119.25 C 227.820312 118.894531 226.71875 118.8125 225.738281 118.65625 C 223.703125 118.335938 221.496094 117.960938 219.441406 117.863281 C 214.960938 117.671875 210.597656 117.753906 206.503906 117.929688 C 194.324219 118.472656 183.285156 120.863281 173.085938 122.921875 C 173.246094 124.253906 173.335938 125.652344 173.351562 127.125 C 181.703125 125.480469 191.363281 124.296875 201.382812 123.839844 C 215.109375 123.214844 229.484375 123.710938 240.644531 126.53125 C 240.289062 117.417969 240.222656 107.859375 240.644531 98.371094 C 240.84375 93.816406 240.769531 89.269531 240.96875 84.777344 C 241.230469 78.90625 241.523438 73.109375 241.953125 67.511719 C 241.695312 67.355469 241.398438 67.238281 241.296875 66.925781 C 241.8125 66.273438 240.941406 66.328125 241.035156 65.742188 C 241.101562 65.320312 241.613281 65.253906 242.085938 65.542969 C 241.976562 65.023438 242.027344 64.496094 242.152344 64.03125 C 241.664062 63.625 241.132812 62.121094 242.214844 61.9375 C 242.539062 62.164062 241.820312 62.792969 242.347656 63.046875 C 242.414062 62.550781 242.480469 62.046875 242.480469 61.476562 C 241.628906 61.226562 241.96875 59.738281 242.671875 59.574219 C 242.019531 59.328125 242.078125 58.640625 242.738281 58.457031 C 242.871094 57.863281 242.796875 57.0625 242.9375 56.488281 C 242.375 56.050781 242.085938 54.429688 243.136719 54.316406 C 243.070312 53.894531 243.25 53.546875 243.136719 53.265625 C 241.976562 54.308594 241.132812 55.710938 240.117188 57.011719 C 239.140625 58.257812 238.074219 59.46875 237.097656 60.75 C 235.785156 62.453125 234.253906 64.785156 232.890625 66.660156 C 232.203125 67.605469 231.449219 68.347656 231.316406 69.546875 C 230.953125 72.886719 231.144531 76.378906 230.988281 79.917969 C 230.855469 82.960938 230.855469 85.796875 230.988281 88.78125 C 231.144531 92.15625 231.335938 95.15625 231.1875 98.503906 C 231.160156 99.042969 231.027344 100.085938 231.1875 100.539062 C 231.375 101.042969 232.019531 101.109375 232.039062 101.914062 C 232.0625 102.753906 231.417969 103.277344 230.664062 103.226562 C 228.945312 103.117188 229.746094 101.136719 229.746094 99.878906 C 229.730469 95.074219 229.332031 89.832031 229.679688 84.449219 C 229.695312 84.230469 229.746094 84.019531 229.746094 83.792969 C 229.722656 80 229.433594 75.996094 229.21875 72.632812 C 227.804688 75.101562 226.480469 77.773438 225.015625 80.378906 C 224.535156 81.238281 223.777344 82.097656 223.570312 82.941406 C 223.453125 83.421875 223.578125 84.058594 223.570312 84.648438 C 223.554688 87.464844 223.148438 91.246094 223.4375 93.773438 C 223.527344 94.535156 223.867188 96.007812 222.71875 95.941406 C 222.121094 95.902344 221.980469 94.992188 221.925781 94.429688 C 221.742188 92.078125 222.222656 88.988281 221.667969 86.746094 C 220.847656 89.0625 219.722656 92.238281 218.78125 94.6875 C 217.898438 97 216.671875 99.160156 213.464844 98.894531 C 212.605469 98.820312 212.132812 98.449219 211.230469 98.300781 C 210.867188 98.035156 210.746094 97.511719 210.3125 97.316406 C 210.125 97.421875 210.25 97.828125 209.851562 97.710938 C 209.488281 97.296875 209.222656 96.738281 209.328125 96.199219 C 209.117188 96.304688 209.28125 96.53125 208.867188 96.398438 C 208.511719 96.101562 209.082031 95.808594 208.800781 95.605469 C 208.480469 95.5625 208.421875 96.023438 208.140625 95.808594 C 207.585938 95.621094 207.832031 94.816406 207.949219 94.5625 C 207.710938 94.75 207.289062 94.5625 207.222656 94.363281 C 207.238281 94.132812 207.496094 94.15625 207.617188 94.039062 C 207.417969 93.992188 207.320312 93.503906 207.15625 93.636719 C 207.246094 93.644531 207.222656 93.757812 207.289062 93.769531 Z M 167.703125 82.613281 C 167.902344 82.753906 167.8125 83.027344 167.769531 83.265625 C 167.96875 83.09375 168.015625 82.414062 167.902344 82.152344 C 167.851562 82.316406 167.726562 82.414062 167.703125 82.613281 Z M 167.246094 85.109375 C 167.480469 84.976562 167.5625 85.117188 167.769531 85.175781 C 167.769531 84.976562 167.769531 84.773438 167.769531 84.582031 C 167.644531 84.582031 167.511719 84.582031 167.378906 84.582031 C 167.371094 84.789062 167.230469 84.871094 167.246094 85.109375 Z M 166.917969 87.796875 C 167.398438 87.640625 167.167969 88.203125 167.378906 88.320312 C 167.511719 87.882812 167.738281 87.203125 167.578125 86.683594 C 167.414062 87.113281 166.917969 87.203125 166.917969 87.796875 Z M 128.25 111.496094 C 128.242188 110.984375 128.144531 110.554688 127.921875 110.25 C 128.011719 110.6875 128.019531 111.207031 128.25 111.496094 Z M 128.773438 113.339844 C 128.753906 113.140625 128.738281 112.9375 128.582031 112.871094 C 128.65625 113.019531 128.589844 113.300781 128.773438 113.339844 Z M 130.351562 120.949219 C 130.714844 120.980469 130.898438 121.195312 131.078125 121.410156 C 131.03125 121.164062 130.914062 120.992188 130.878906 120.757812 C 130.65625 120.78125 130.507812 120.726562 130.351562 120.691406 C 130.351562 120.773438 130.351562 120.859375 130.351562 120.949219 Z M 167.511719 124.429688 C 167.445312 125.59375 167.554688 127.140625 167.511719 128.5 C 168.621094 128.28125 169.671875 128 170.722656 127.710938 C 170.613281 126.339844 170.746094 124.71875 170.398438 123.578125 C 169.464844 123.890625 168.304688 123.976562 167.511719 124.429688 Z M 131.46875 124.496094 C 131.417969 124.671875 131.59375 124.628906 131.601562 124.753906 C 131.800781 124.71875 131.933594 124.613281 131.929688 124.363281 C 131.683594 124.320312 131.675781 124.503906 131.46875 124.496094 Z M 162.914062 125.546875 C 162.824219 126.902344 162.847656 128.367188 162.847656 129.8125 C 163.699219 129.546875 164.578125 129.316406 165.40625 129.027344 C 165.082031 127.878906 165.378906 126.125 165.082031 124.953125 C 164.355469 125.148438 163.585938 125.296875 162.914062 125.546875 Z M 132.320312 127.84375 C 132.535156 127.855469 132.640625 127.769531 132.644531 127.582031 C 132.574219 127.523438 132.476562 127.496094 132.320312 127.515625 C 132.320312 127.628906 132.320312 127.730469 132.320312 127.84375 Z M 179.328125 134.867188 C 174.375 136.285156 169.777344 137.972656 165.015625 139.859375 C 161.863281 141.109375 158.277344 142.863281 155.300781 144.648438 C 154.273438 145.265625 152.984375 145.886719 152.347656 146.550781 C 152.035156 146.871094 151.792969 147.5 151.488281 147.996094 C 151.140625 148.558594 150.75 149.121094 150.769531 149.640625 C 150.785156 150.105469 151.480469 151.394531 151.882812 151.609375 C 152.246094 151.800781 153.042969 151.777344 153.726562 151.867188 C 154.347656 151.957031 155.019531 152.039062 155.5625 152.132812 C 159.160156 152.75 163.710938 153.140625 167.117188 153.320312 C 169.84375 153.453125 172.625 153.265625 175.320312 153.183594 C 183.679688 152.917969 191.5 152.386719 199.21875 151.609375 C 204.46875 151.082031 209.710938 150.988281 214.777344 150.164062 C 214.714844 143.574219 214.769531 135.992188 214.117188 129.550781 C 201.414062 129.894531 190.046875 131.8125 179.328125 134.867188 Z M 133.503906 133.097656 C 133.609375 133.097656 133.71875 133.097656 133.832031 133.097656 C 133.90625 132.714844 133.476562 132.824219 133.503906 133.097656 Z M 133.570312 133.75 C 133.699219 133.75 133.832031 133.75 133.964844 133.75 C 133.933594 133.582031 133.925781 133.394531 133.832031 133.292969 C 133.757812 133.460938 133.667969 133.609375 133.570312 133.75 Z M 134.488281 136.445312 C 134.488281 136.246094 134.527344 136.007812 134.289062 136.054688 C 134.179688 136.269531 134.328125 136.335938 134.488281 136.445312 Z M 134.355469 137.164062 C 134.46875 137.164062 134.5625 137.179688 134.617188 137.230469 C 134.59375 137.058594 134.570312 136.542969 134.488281 136.636719 C 134.542969 136.914062 134.355469 136.949219 134.355469 137.164062 Z M 134.222656 138.414062 C 134.347656 138.535156 134.488281 138.628906 134.75 138.609375 C 134.773438 138.527344 134.832031 137.949219 134.617188 137.890625 C 134.554688 138.132812 134.171875 138.050781 134.222656 138.414062 Z M 132.988281 149.957031 C 132.890625 150.097656 132.816406 150.261719 132.527344 150.21875 C 132.304688 149.855469 132.839844 149.601562 132.988281 149.957031 Z M 133.914062 149.632812 C 134 149.714844 134 149.9375 133.914062 150.023438 C 133.726562 150.007812 133.632812 149.90625 133.644531 149.691406 C 133.707031 149.644531 133.792969 149.625 133.914062 149.632812 Z M 132.527344 147.722656 C 132.566406 148.238281 131.929688 148.585938 131.417969 148.773438 C 131.402344 148.320312 131.890625 147.523438 132.527344 147.722656 Z M 131.152344 147.136719 C 131.425781 147.101562 131.484375 147.492188 131.351562 147.664062 C 131.261719 147.664062 131.171875 147.664062 131.085938 147.664062 C 130.949219 147.515625 131.03125 147.21875 131.152344 147.136719 Z M 132.859375 146.871094 C 133.023438 146.878906 133.113281 146.964844 133.121094 147.136719 C 132.996094 147.136719 133.039062 147.316406 132.859375 147.261719 C 132.773438 147.179688 132.773438 146.953125 132.859375 146.871094 Z M 130.691406 146.476562 C 130.796875 146.457031 130.804688 146.535156 130.890625 146.542969 C 130.898438 146.664062 130.808594 146.675781 130.824219 146.804688 C 130.675781 146.796875 130.683594 146.640625 130.691406 146.476562 Z M 133.386719 146.085938 C 133.617188 146.070312 133.726562 146.175781 133.710938 146.410156 C 133.636719 146.460938 133.535156 146.5 133.386719 146.476562 C 133.328125 146.285156 133.328125 146.277344 133.386719 146.085938 Z M 131.085938 145.035156 C 131.386719 145.085938 131.320312 145.5 131.417969 145.753906 C 131.660156 145.796875 132.105469 145.632812 132.070312 145.953125 C 132.3125 145.90625 132.46875 145.515625 132.792969 145.753906 C 132.847656 146.070312 132.417969 146.246094 132.203125 146.085938 C 132.019531 146.269531 131.847656 146.46875 131.675781 146.675781 C 131.773438 146.886719 132.230469 146.730469 132.335938 146.9375 C 132.445312 147.953125 131.070312 147.617188 131.476562 146.738281 C 131.378906 146.625 131.085938 146.691406 131.019531 146.542969 C 131.21875 145.953125 131.164062 145.714844 131.085938 145.035156 Z M 133.386719 144.640625 C 133.476562 144.679688 133.542969 144.738281 133.578125 144.835938 C 133.492188 145.070312 133.394531 145.300781 133.121094 145.359375 C 133.113281 145.109375 132.898438 145.054688 132.925781 144.765625 C 133.03125 144.671875 133.289062 144.863281 133.386719 144.640625 Z M 129.839844 144.441406 C 129.871094 144.582031 129.796875 144.621094 129.773438 144.699219 C 129.683594 144.679688 129.671875 144.589844 129.574219 144.574219 C 129.589844 144.457031 129.691406 144.425781 129.839844 144.441406 Z M 130.234375 143.65625 C 130.320312 143.679688 130.335938 143.769531 130.433594 143.78125 C 130.394531 144.058594 130.328125 144.292969 130.234375 144.507812 C 130.027344 144.390625 130.054688 143.773438 130.234375 143.65625 Z M 132.59375 143.589844 C 132.765625 143.789062 132.808594 144.117188 132.792969 144.507812 C 132.484375 144.449219 132.578125 143.980469 132.136719 144.050781 C 132.121094 143.722656 132.269531 143.566406 132.59375 143.589844 Z M 131.351562 143.589844 C 131.285156 143.789062 131.195312 143.960938 130.957031 143.980469 C 131.003906 143.769531 131.0625 143.566406 131.351562 143.589844 Z M 131.875 142.796875 C 131.964844 142.796875 132.046875 142.796875 132.136719 142.796875 C 132.253906 142.925781 132.1875 143.234375 132.203125 143.457031 C 132.039062 143.582031 131.875 143.703125 131.542969 143.65625 C 131.519531 143.53125 131.402344 143.488281 131.417969 143.324219 C 131.582031 143.160156 131.90625 143.160156 131.875 142.796875 Z M 131.085938 142.40625 C 131.445312 142.421875 131.453125 142.78125 131.542969 143.066406 C 131.484375 143.09375 131.425781 143.125 131.417969 143.199219 C 130.914062 143.226562 130.898438 142.722656 131.085938 142.40625 Z M 131.808594 141.621094 C 132.136719 141.777344 132.289062 142.546875 131.675781 142.472656 C 131.660156 142.183594 131.558594 141.835938 131.808594 141.621094 Z M 131.675781 140.828125 C 131.675781 140.941406 131.675781 141.050781 131.675781 141.160156 C 131.386719 141.316406 131.136719 141.222656 130.824219 141.421875 C 130.757812 140.84375 131.230469 140.519531 131.675781 140.828125 Z M 132.335938 140.042969 C 132.425781 140.238281 132.335938 140.371094 132.203125 140.503906 C 131.882812 140.480469 131.988281 139.957031 132.335938 140.042969 Z M 129.449219 139.976562 C 129.738281 139.96875 129.878906 140.117188 129.90625 140.371094 C 129.738281 140.554688 129.609375 140.777344 129.316406 140.828125 C 129.195312 140.503906 129.359375 140.28125 129.449219 139.976562 Z M 130.625 137.023438 C 130.625 137.179688 130.734375 137.214844 130.691406 137.414062 C 130.574219 137.59375 130.21875 137.59375 130.097656 137.414062 C 130.011719 136.992188 130.335938 136.875 130.625 137.023438 Z M 130.234375 135.839844 C 130.195312 136.113281 130.171875 136.394531 129.839844 136.363281 C 129.8125 136.3125 129.78125 136.253906 129.707031 136.238281 C 129.742188 135.980469 129.964844 135.652344 130.234375 135.839844 Z M 130.691406 132.625 C 130.527344 133.097656 130.105469 133.304688 129.773438 133.609375 C 129.640625 133.09375 129.914062 132.441406 130.691406 132.625 Z M 130.367188 130.789062 C 130.449219 130.8125 130.46875 130.898438 130.558594 130.914062 C 130.378906 131.410156 130.542969 131.425781 130.691406 131.839844 C 130.617188 131.890625 130.515625 131.921875 130.367188 131.898438 C 130.210938 131.53125 129.929688 131.054688 130.367188 130.789062 Z M 129.113281 130.128906 C 129.316406 130.128906 129.308594 130.597656 129.046875 130.523438 C 128.90625 130.390625 129.039062 130.234375 129.113281 130.128906 Z M 129.316406 127.570312 C 129.542969 128.066406 129.269531 128.988281 129.449219 129.671875 C 129.003906 129.480469 128.707031 127.761719 129.316406 127.570312 Z M 128.589844 127.109375 C 128.625 127.449219 128.46875 127.597656 128.128906 127.570312 C 127.945312 127.25 128.316406 126.96875 128.589844 127.109375 Z M 128.195312 123.628906 C 128.226562 123.96875 127.605469 123.851562 127.671875 123.5625 C 127.929688 123.59375 128.070312 123.414062 128.195312 123.628906 Z M 127.9375 122.386719 C 127.894531 122.691406 127.714844 122.867188 127.414062 122.910156 C 127.324219 122.703125 127.574219 122.347656 127.9375 122.386719 Z M 125.835938 111.421875 C 125.9375 111.398438 125.945312 111.480469 126.035156 111.488281 C 126.050781 111.804688 125.886719 112.011719 126.035156 112.273438 C 125.703125 112.214844 125.628906 111.644531 125.835938 111.421875 Z M 207.304688 101.046875 C 207.210938 101.410156 207.261719 101.605469 207.371094 101.898438 C 207.3125 101.929688 207.253906 101.960938 207.238281 102.035156 C 206.691406 102.09375 206.699219 100.691406 207.304688 101.046875 Z M 204.8125 98.945312 C 204.914062 99.183594 204.996094 99.480469 204.8125 99.671875 C 204.171875 99.835938 204.085938 98.746094 204.8125 98.945312 Z M 204.285156 97.828125 C 204.523438 97.953125 204.425781 98.070312 204.417969 98.351562 C 204.03125 98.449219 204.128906 97.917969 204.285156 97.828125 Z M 203.824219 96.515625 C 203.605469 96.503906 203.484375 96.375 203.5 96.125 C 203.671875 95.960938 204.039062 96.296875 203.824219 96.515625 Z M 205.003906 96.324219 C 204.929688 96.308594 204.890625 96.339844 204.878906 96.382812 C 204.664062 96.375 204.589844 96.234375 204.609375 95.992188 C 204.816406 95.894531 205.0625 95.984375 205.003906 96.324219 Z M 202.90625 95.007812 C 202.972656 95.007812 203.035156 95.007812 203.101562 95.007812 C 203.121094 95.175781 203.078125 95.289062 202.90625 95.273438 C 202.90625 95.183594 202.90625 95.097656 202.90625 95.007812 Z M 200.671875 94.546875 C 200.464844 94.621094 200.5 94.578125 200.347656 94.480469 C 200.351562 94.289062 200.738281 94.3125 200.671875 94.546875 Z M 165.15625 94.355469 C 165.023438 94.496094 164.867188 94.363281 164.765625 94.289062 C 164.765625 94.089844 165.230469 94.097656 165.15625 94.355469 Z M 203.433594 93.957031 C 203.605469 93.957031 203.78125 93.957031 203.960938 93.957031 C 204.078125 94.089844 204.167969 94.488281 204.019531 94.679688 C 203.582031 94.6875 203.25 94.371094 203.433594 93.957031 Z M 201.988281 93.238281 C 201.921875 93.917969 201.648438 94.386719 200.871094 94.355469 C 200.996094 93.769531 201.339844 93.082031 201.988281 93.238281 Z M 199.753906 92.777344 C 199.789062 92.992188 199.710938 93.082031 199.6875 93.238281 C 199.363281 93.28125 199.257812 93.097656 199.296875 92.777344 C 199.382812 92.683594 199.664062 92.683594 199.753906 92.777344 Z M 199.09375 91.859375 C 199.019531 91.84375 198.984375 91.875 198.96875 91.917969 C 198.066406 91.617188 199.4375 90.914062 199.09375 91.859375 Z M 164.695312 88.90625 C 164.726562 89.269531 164.121094 89.203125 163.980469 89.03125 C 163.90625 88.648438 164.59375 88.734375 164.695312 88.90625 Z M 165.15625 86.9375 C 165.148438 87.101562 165.058594 87.1875 164.898438 87.195312 C 164.867188 87.136719 164.839844 87.078125 164.765625 87.0625 C 164.769531 86.898438 164.984375 86.9375 165.15625 86.9375 Z M 164.765625 86.9375 C 164.039062 87.101562 163.765625 86.183594 164.171875 85.820312 C 164.628906 85.929688 164.480469 86.648438 164.765625 86.9375 Z M 162.59375 83.851562 C 162.683594 83.871094 162.699219 83.960938 162.792969 83.984375 C 162.699219 84.226562 162.15625 84.324219 161.941406 84.242188 C 161.949219 83.902344 162.417969 84.019531 162.59375 83.851562 Z M 165.089844 83.125 C 165.230469 83.183594 165.289062 83.316406 165.289062 83.515625 C 165.089844 83.523438 165.097656 83.324219 165.089844 83.125 Z M 164.5625 83.257812 C 164.378906 83.324219 164.046875 83.480469 163.847656 83.324219 C 163.742188 82.835938 164.691406 82.648438 164.5625 83.257812 Z M 238.222656 82.339844 C 238.222656 82.496094 238.335938 82.53125 238.289062 82.730469 C 238.171875 82.910156 237.75 82.910156 237.632812 82.730469 C 237.519531 82.28125 237.925781 82.191406 238.222656 82.339844 Z M 239.273438 81.15625 C 239.253906 81.371094 238.941406 81.511719 238.75 81.355469 C 238.667969 80.910156 239.164062 80.886719 239.273438 81.15625 Z M 165.816406 80.828125 C 165.585938 81.371094 165.1875 82.074219 164.5625 82.011719 C 164.59375 81.515625 165.3125 80.84375 165.816406 80.828125 Z M 164.371094 80.628906 C 164.636719 80.628906 164.421875 81.101562 164.5625 81.222656 C 164.488281 81.296875 164.335938 81.296875 164.171875 81.289062 C 164.007812 81 164.238281 80.8125 164.371094 80.628906 Z M 239.273438 79.058594 C 239.320312 79.4375 238.460938 79.40625 238.421875 79.117188 C 238.402344 78.769531 239.222656 78.757812 239.273438 79.058594 Z M 238.617188 77.148438 C 238.652344 77.386719 238.5625 77.488281 238.421875 77.550781 C 237.859375 77.535156 238.195312 76.839844 238.617188 77.148438 Z M 164.964844 76.824219 C 164.964844 77.089844 164.71875 77.105469 164.4375 77.089844 C 164.355469 77.007812 164.363281 76.851562 164.371094 76.691406 C 164.535156 76.566406 164.941406 76.609375 164.964844 76.824219 Z M 239.207031 74.789062 C 239.207031 75.230469 239.71875 75.148438 239.601562 75.707031 C 238.90625 76.496094 238.164062 74.832031 239.207031 74.789062 Z M 165.816406 74.789062 C 166.015625 75.023438 166.394531 75.082031 166.601562 75.3125 C 166.445312 76.015625 165.40625 75.417969 165.816406 74.789062 Z M 164.832031 73.609375 C 165.097656 73.683594 164.816406 73.871094 164.628906 73.871094 C 164.628906 73.800781 164.628906 73.734375 164.628906 73.667969 C 164.726562 73.675781 164.816406 73.683594 164.832031 73.609375 Z M 239.601562 73.085938 C 239.601562 73.234375 239.601562 73.386719 239.601562 73.542969 C 239.222656 73.847656 238.691406 73.542969 238.75 73.019531 C 238.925781 72.671875 239.402344 72.90625 239.601562 73.085938 Z M 239.273438 72.101562 C 239.207031 72.101562 239.222656 72.179688 239.207031 72.226562 C 238.246094 72.671875 238.378906 71.070312 238.882812 71.117188 C 239.171875 71.136719 239.132812 71.804688 239.273438 72.101562 Z M 240.394531 70.847656 C 240.25 70.90625 240.171875 71.019531 239.933594 70.980469 C 239.4375 70.484375 240.527344 69.996094 240.394531 70.847656 Z M 165.222656 70.195312 C 165.429688 70.210938 165.394531 70.804688 165.289062 70.914062 C 164.984375 70.847656 165.171875 70.425781 165.222656 70.195312 Z M 110.273438 68.160156 C 110.503906 68.214844 110.710938 68.292969 110.796875 68.488281 C 110.851562 68.664062 110.671875 68.621094 110.671875 68.746094 C 110.308594 68.761719 109.984375 68.40625 110.273438 68.160156 Z M 165.75 67.109375 C 165.769531 67.496094 165.125 67.390625 164.964844 67.242188 C 164.84375 66.792969 165.703125 66.8125 165.75 67.109375 Z M 111.722656 67.109375 C 111.632812 67.132812 111.621094 67.222656 111.523438 67.242188 C 111.332031 67.257812 111.292969 67.117188 111.199219 67.042969 C 111.167969 66.628906 111.835938 66.597656 111.722656 67.109375 Z M 240.519531 66.652344 C 240.414062 67.160156 240.792969 67.613281 240.125 67.703125 C 240 67.605469 239.898438 67.496094 239.800781 67.367188 C 239.882812 67 240.191406 66.554688 240.519531 66.652344 Z M 165.683594 63.824219 C 165.71875 64.105469 165.460938 64.089844 165.289062 64.15625 C 165.328125 63.957031 165.4375 63.816406 165.683594 63.824219 Z M 241.769531 40.714844 C 242.097656 40.679688 242.25 41.078125 242.097656 41.308594 C 241.769531 41.34375 241.621094 40.953125 241.769531 40.714844 Z M 243.082031 38.679688 C 243.226562 38.984375 243.40625 39.433594 243.011719 39.605469 C 242.324219 39.6875 242.164062 38.457031 243.082031 38.679688 Z M 247.285156 35.925781 C 247.09375 36.058594 247.035156 36.140625 246.761719 36.058594 C 246.160156 35.421875 247.464844 34.941406 247.285156 35.925781 Z M 243.738281 35.464844 C 243.730469 35.828125 243.339844 35.71875 243.148438 35.597656 C 243.148438 35.53125 243.148438 35.464844 243.148438 35.398438 C 243.316406 35.25 243.613281 35.371094 243.738281 35.464844 Z M 243.738281 35.464844 " fill-opacity="1" fill-rule="evenodd"/></g></svg>