<svg xmlns="http://www.w3.org/2000/svg" xmlns:xlink="http://www.w3.org/1999/xlink" width="68" zoomAndPan="magnify" viewBox="0 0 50.879997 50.999998" height="68" preserveAspectRatio="xMidYMid meet" version="1.0"><defs><clipPath id="1cf856f638"><path d="M 2 10 L 47 10 L 47 48 L 2 48 Z M 2 10 " clip-rule="nonzero"/></clipPath><clipPath id="cf355bf7db"><path d="M 0.00390625 46.449219 L 4.609375 0.289062 L 49.28125 4.742188 L 44.675781 50.90625 Z M 0.00390625 46.449219 " clip-rule="nonzero"/></clipPath><clipPath id="c73d645a24"><path d="M 0.00390625 46.449219 L 4.609375 0.289062 L 49.28125 4.742188 L 44.675781 50.90625 Z M 0.00390625 46.449219 " clip-rule="nonzero"/></clipPath><clipPath id="9e46442589"><path d="M 5 1 L 47 1 L 47 49 L 5 49 Z M 5 1 " clip-rule="nonzero"/></clipPath><clipPath id="3fb49c6108"><path d="M 0.00390625 46.449219 L 4.609375 0.289062 L 49.28125 4.742188 L 44.675781 50.90625 Z M 0.00390625 46.449219 " clip-rule="nonzero"/></clipPath><clipPath id="52d6090354"><path d="M 0.00390625 46.449219 L 4.609375 0.289062 L 49.28125 4.742188 L 44.675781 50.90625 Z M 0.00390625 46.449219 " clip-rule="nonzero"/></clipPath></defs><g clip-path="url(#1cf856f638)"><g clip-path="url(#cf355bf7db)"><g clip-path="url(#c73d645a24)"><path fill="#253754" d="M 2.484375 28.3125 C 2.929688 30.574219 4.113281 33.515625 5.527344 35.71875 C 6.941406 37.921875 8.585938 39.394531 9.84375 40.550781 C 11.105469 41.710938 11.984375 42.554688 13.269531 43.128906 C 14.550781 43.703125 16.242188 44.007812 18.023438 44.394531 C 19.808594 44.777344 21.6875 45.242188 23.367188 45.839844 C 25.042969 46.433594 26.519531 47.167969 28.929688 47.320312 C 31.335938 47.476562 34.679688 47.050781 37.027344 46.101562 C 39.378906 45.148438 40.726562 43.664062 42.230469 42.214844 C 43.734375 40.765625 45.390625 39.351562 46.117188 35.65625 C 46.847656 31.964844 46.652344 25.992188 45.039062 21.121094 C 43.429688 16.25 40.398438 12.472656 37.164062 11.273438 C 33.933594 10.074219 30.492188 11.449219 27.492188 12.90625 C 24.496094 14.359375 21.933594 15.894531 18.625 16.113281 C 15.320312 16.335938 11.265625 15.242188 8.535156 15.039062 C 5.804688 14.835938 4.394531 15.519531 3.632812 16.976562 C 2.867188 18.429688 2.75 20.652344 2.542969 22.558594 C 2.335938 24.464844 2.039062 26.050781 2.484375 28.3125 Z M 2.484375 28.3125 " fill-opacity="1" fill-rule="evenodd"/></g></g></g><g clip-path="url(#9e46442589)"><g clip-path="url(#3fb49c6108)"><g clip-path="url(#52d6090354)"><path fill="#fd3b32" d="M 10.179688 13.847656 C 8.78125 18.082031 7.300781 23.378906 6.640625 28.4375 C 5.984375 33.46875 6.140625 38.261719 7.996094 41.523438 C 9.65625 44.441406 12.6875 46.148438 16.203125 46.96875 C 20.535156 47.980469 25.589844 47.636719 29.703125 46.535156 C 33.21875 45.59375 36.046875 44.097656 38.300781 42.21875 C 40.828125 40.113281 42.640625 37.527344 43.910156 34.707031 C 45.097656 32.070312 45.808594 29.226562 46.050781 26.542969 C 46.292969 23.796875 46.042969 21.21875 45.300781 19.195312 C 44.605469 17.3125 43.484375 15.910156 42.078125 14.925781 C 40.523438 13.835938 38.613281 13.253906 36.539062 13.085938 C 35.34375 12.988281 34.082031 13.027344 32.820312 13.070312 C 29.816406 13.167969 26.808594 13.265625 24.46875 11.527344 C 22.757812 10.257812 21.449219 8.035156 20.277344 6.042969 C 19.207031 4.222656 18.253906 2.609375 17.289062 2.199219 C 16.34375 1.804688 15.289062 2.59375 14.121094 4.476562 C 12.890625 6.460938 11.574219 9.621094 10.179688 13.847656 Z M 6.132812 28.375 C 6.796875 23.273438 8.285156 17.945312 9.691406 13.691406 C 11.101562 9.425781 12.433594 6.230469 13.6875 4.207031 C 15.003906 2.082031 16.269531 1.21875 17.484375 1.726562 C 18.613281 2.203125 19.601562 3.886719 20.71875 5.78125 C 21.863281 7.730469 23.144531 9.910156 24.773438 11.117188 C 26.972656 12.75 29.886719 12.65625 32.804688 12.558594 C 34.078125 12.515625 35.351562 12.476562 36.582031 12.574219 C 38.742188 12.75 40.738281 13.363281 42.371094 14.503906 C 43.863281 15.546875 45.050781 17.03125 45.78125 19.019531 C 46.546875 21.113281 46.808594 23.769531 46.558594 26.589844 C 46.316406 29.328125 45.589844 32.226562 44.378906 34.917969 C 43.078125 37.804688 41.21875 40.453125 38.628906 42.613281 C 36.316406 44.539062 33.429688 46.070312 29.835938 47.03125 C 25.652344 48.152344 20.503906 48.496094 16.085938 47.46875 C 12.445312 46.617188 9.289062 44.832031 7.550781 41.777344 C 5.632812 38.40625 5.464844 33.503906 6.132812 28.375 Z M 6.132812 28.375 " fill-opacity="1" fill-rule="evenodd"/></g></g></g></svg>